<svg xmlns="http://www.w3.org/2000/svg" width="800" height="292" viewBox="0 0 800 292" version="1.1"><path d="M 152.302 47.098 C 151.533 47.867, 140.692 48.092, 116.102 47.848 L 80.999 47.500 81 51.177 C 81 55.920, 79.050 55.685, 114.107 55.166 C 145.070 54.709, 145.751 54.796, 144.179 59.045 L 143.354 61.275 113.308 61.076 C 80.813 60.860, 80.755 60.870, 83.365 66.107 L 84.558 68.500 111.996 68.766 C 141.112 69.049, 141.658 69.140, 140.021 73.444 L 138.968 76.214 113.318 75.857 C 85.499 75.470, 85.244 75.523, 89.741 80.779 L 92.500 84.003 111 84.146 C 134.556 84.328, 135.454 84.546, 131 89 L 129 91 117.250 90.956 C 110.787 90.932, 103.588 90.543, 101.250 90.091 C 95.027 88.887, 97.051 92.138, 107.500 100.133 C 109.150 101.395, 110.807 102.894, 111.182 103.464 C 111.556 104.034, 112.510 105.369, 113.301 106.431 L 114.738 108.362 120.119 104.496 C 141.573 89.079, 151.687 72.974, 152.136 53.518 C 152.227 49.545, 152.727 47.681, 153.882 47.006 C 154.772 46.486, 155.028 46.047, 154.450 46.030 C 153.873 46.014, 152.906 46.494, 152.302 47.098 M 112 118.133 C 92.466 133.763, 84.102 147.294, 82.355 166.091 L 81.709 173.039 86.021 177.019 C 91.451 182.032, 91.569 182.022, 97.500 176 C 103.607 169.800, 103.202 169.769, 110.770 177.005 C 118.322 184.226, 117.082 184.180, 124.085 177.500 C 131.071 170.836, 132.514 170.740, 139 176.500 C 141.787 178.975, 144.307 181, 144.600 181 C 146.658 181, 151.990 174.078, 152.228 171.097 L 152.500 167.694 149.559 166.882 C 147.941 166.436, 134.666 166.104, 120.059 166.145 C 105.452 166.187, 92.938 166.171, 92.250 166.110 C 91.552 166.049, 91 164.675, 91 163 L 91 160 121.500 160 L 152 160 152 158.191 C 152 157.196, 151.396 155.556, 150.658 154.546 L 149.315 152.711 122.908 152.874 C 95.367 153.044, 93.609 152.800, 94.163 148.887 L 94.500 146.500 121.263 146 L 148.026 145.500 145.547 141.853 L 143.068 138.207 138.284 137.728 C 135.653 137.464, 127.200 137.226, 119.500 137.199 C 111.800 137.172, 104.986 137.117, 104.357 137.075 C 102.835 136.975, 101.911 134.394, 102.681 132.390 L 103.299 130.780 120.690 131.159 L 138.080 131.538 134.290 127.990 C 132.206 126.038, 128.363 122.713, 125.750 120.600 C 123.138 118.488, 121 116.138, 121 115.380 C 121 114.621, 120.523 114, 119.941 114 C 119.359 114, 119.160 113.550, 119.500 113 C 120.482 111.410, 119.927 111.790, 112 118.133 M 97.892 183.500 C 92.851 188.879, 92.079 188.958, 86.119 184.698 C 78.978 179.594, 79.028 179.609, 79.925 182.740 C 81.946 189.785, 98.351 218.582, 101.218 220.116 C 102.898 221.016, 116.054 220.982, 134.122 220.033 C 135.451 219.963, 152.875 187.281, 153.562 183.568 L 154.291 179.636 149.190 183.937 L 144.089 188.238 140.198 185.157 C 138.058 183.462, 135.733 181.384, 135.031 180.538 C 133.025 178.120, 130.672 178.710, 126.946 182.566 C 125.051 184.527, 122.030 187.044, 120.233 188.158 L 116.966 190.184 110.926 184.592 C 103.638 177.845, 103.225 177.810, 97.892 183.500" stroke="none" fill="#f3d489" fill-rule="evenodd"/><path d="M 153.882 46.993 C 152.729 47.676, 152.227 49.552, 152.136 53.518 C 151.645 74.804, 142.114 88.652, 113.946 109 C 84.499 130.273, 75 146.872, 75 177.056 L 75 186.918 79.286 195.209 C 84.684 205.650, 112.569 253.803, 115.107 257.066 L 117 259.500 119 257 C 120.826 254.717, 128.538 241.539, 150.184 203.710 C 167.919 172.718, 158.788 135.155, 128.757 115.568 C 121.787 111.022, 119.219 115.319, 125.750 120.600 C 128.363 122.713, 132.206 126.038, 134.290 127.990 L 138.080 131.538 120.690 131.159 L 103.299 130.780 102.681 132.390 C 101.911 134.394, 102.835 136.975, 104.357 137.075 C 104.986 137.117, 111.800 137.172, 119.500 137.199 C 127.200 137.226, 135.653 137.464, 138.284 137.728 L 143.068 138.207 145.547 141.853 L 148.026 145.500 121.263 146 L 94.500 146.500 94.163 148.887 C 93.609 152.800, 95.367 153.044, 122.908 152.874 L 149.315 152.711 150.658 154.546 C 151.396 155.556, 152 157.196, 152 158.191 L 152 160 121.500 160 L 91 160 91 163 C 91 164.675, 91.552 166.049, 92.250 166.110 C 92.938 166.171, 105.452 166.187, 120.059 166.145 C 134.666 166.104, 147.941 166.436, 149.559 166.882 L 152.500 167.694 152.228 171.097 C 151.990 174.078, 146.658 181, 144.600 181 C 144.307 181, 141.787 178.975, 139 176.500 C 132.514 170.740, 131.071 170.836, 124.085 177.500 C 117.082 184.180, 118.322 184.226, 110.770 177.005 C 103.202 169.769, 103.607 169.800, 97.500 176 C 91.569 182.022, 91.451 182.032, 86.021 177.019 L 81.709 173.039 82.355 166.091 C 84.386 144.241, 92.793 132.649, 123.226 109.740 C 140.246 96.927, 145.304 91.857, 150.710 82.191 C 159.554 66.375, 161.720 42.348, 153.882 46.993 M 75.019 48.750 C 75.267 71.050, 85.685 91.648, 102.900 103.875 C 112.045 110.370, 116.303 106.917, 107.500 100.145 C 97.006 92.072, 95.026 88.887, 101.250 90.091 C 103.588 90.543, 110.787 90.932, 117.250 90.956 L 129 91 131 89 C 135.454 84.546, 134.556 84.328, 111 84.146 L 92.500 84.003 89.741 80.779 C 85.244 75.523, 85.499 75.470, 113.318 75.857 L 138.968 76.214 140.021 73.444 C 141.658 69.140, 141.112 69.049, 111.996 68.766 L 84.558 68.500 83.365 66.107 C 80.755 60.870, 80.813 60.860, 113.308 61.076 L 143.354 61.275 144.179 59.045 C 145.751 54.796, 145.070 54.709, 114.107 55.166 C 78.864 55.687, 81 55.961, 81 50.927 L 81 47 78 47 C 75.802 47, 75.005 47.468, 75.019 48.750 M 394.035 57.934 C 389.635 66.156, 393.610 74.274, 402.098 74.403 C 411.786 74.550, 412 74.359, 412 65.567 L 412 58.070 410.066 57.035 C 406.451 55.101, 395.214 55.731, 394.035 57.934 M 426 101.441 C 426 129.020, 426.361 145.105, 426.990 145.494 C 436.645 151.461, 469.347 151.092, 478.538 144.911 C 494.487 134.186, 493.767 92.875, 477.494 84.997 C 469.159 80.962, 452.457 83.901, 447.128 90.342 C 444.579 93.422, 444.370 92.040, 444.814 75 L 445.256 58 435.628 58 L 426 58 426 101.441 M 191 104.036 L 191 149.072 200.750 148.786 L 210.500 148.500 210.760 103.750 L 211.021 59 201.010 59 L 191 59 191 104.036 M 327.206 97.825 L 327.500 136.650 330.316 140.904 C 335.198 148.277, 343.535 149.865, 370.327 148.526 L 385.083 147.788 384.792 140.644 L 384.500 133.500 367 132.991 C 357.375 132.711, 348.938 132.122, 348.250 131.682 C 347.288 131.066, 347 122.601, 347 94.941 L 347 59 336.956 59 L 326.912 59 327.206 97.825 M 259.808 83.984 C 258.327 84.431, 253.713 86.674, 249.554 88.970 C 241.541 93.393, 241.366 93.364, 240.793 87.500 L 240.500 84.500 232.750 84.208 L 225 83.916 225 116.495 L 225 149.075 234.250 148.788 L 243.500 148.500 243.769 126.206 L 244.038 103.912 248.769 101.854 C 251.864 100.508, 255.912 99.745, 260.473 99.648 L 267.447 99.500 268.105 102.500 C 268.467 104.150, 268.817 115.304, 268.882 127.288 L 269 149.075 278.250 148.788 L 287.500 148.500 287.500 121.500 L 287.500 94.500 285.477 91 C 281.627 84.339, 269.563 81.041, 259.808 83.984 M 534.860 84.385 C 532.309 85.072, 527.433 87.295, 524.027 89.325 C 516.932 93.551, 516 93.390, 516 87.941 L 516 84 508 84 L 500 84 500 116.536 L 500 149.072 509.750 148.786 L 519.500 148.500 519.769 126.367 L 520.038 104.234 526.269 102.708 C 529.696 101.868, 534.840 100.877, 537.700 100.504 C 544.258 99.649, 544.806 98.934, 545.620 90.176 L 546.287 83 542.894 83.067 C 541.027 83.105, 537.412 83.697, 534.860 84.385 M 566.500 83.623 C 564.300 83.831, 560.567 84.256, 558.204 84.568 L 553.908 85.136 554.204 91.318 L 554.500 97.500 571.775 97.575 C 590.582 97.656, 590.689 97.688, 592.016 103.573 C 593.241 109.002, 593.246 108.999, 578.691 109.006 C 563.292 109.012, 559.718 109.803, 554.428 114.376 L 550.526 117.749 550.150 126.026 C 549.082 149.561, 569.624 158.457, 588.994 142.847 L 595 138.008 595 140.939 C 595 142.551, 595.439 145.024, 595.975 146.435 L 596.950 149 603.868 149 C 612.323 149, 611.667 150.714, 611.903 128 C 612.210 98.470, 610.221 90.275, 601.649 85.745 L 597.500 83.552 584 83.399 C 576.575 83.315, 568.700 83.416, 566.500 83.623 M 657.754 84.465 C 655.693 85.178, 651.268 87.394, 647.920 89.388 C 641.432 93.253, 640 93.278, 640 89.523 C 640 84.469, 639.269 84, 631.393 84 L 624 84 624 116.536 L 624 149.072 633.750 148.786 L 643.500 148.500 643.769 126.311 L 644.038 104.123 645.769 103.630 C 646.721 103.359, 650.200 102.638, 653.500 102.027 C 656.800 101.416, 661.694 100.426, 664.375 99.828 L 669.250 98.741 668.759 91.870 C 667.934 80.344, 670.238 83.961, 677.761 106 C 679.920 112.325, 684.079 123.959, 687.003 131.854 L 692.319 146.208 696.703 148.087 L 701.088 149.967 700.031 151.943 C 698.751 154.335, 693.918 158.050, 688.500 160.807 C 686.300 161.927, 683.612 163.508, 682.527 164.321 L 680.554 165.799 681.726 168.149 C 682.370 169.442, 683.036 171.400, 683.207 172.500 C 683.672 175.498, 690.770 175.704, 698.178 172.933 C 710.262 168.414, 714.104 161.854, 728.307 121.500 C 733.533 106.650, 738.746 92.138, 739.890 89.250 L 741.971 84 731.524 84 L 721.077 84 719.968 88.250 C 719.358 90.588, 717.559 96.775, 715.970 102 C 714.381 107.225, 711.692 116.898, 709.995 123.496 C 706.620 136.612, 705.476 138.853, 704.434 134.395 C 704.062 132.803, 701.725 124.075, 699.241 115 C 696.756 105.925, 693.919 95.421, 692.936 91.658 C 691.953 87.895, 691.003 84.693, 690.824 84.544 C 689.475 83.416, 660.981 83.347, 657.754 84.465 M 393 116.538 L 393 149.075 402.250 148.788 L 411.500 148.500 411.764 116.250 L 412.028 84 402.514 84 L 393 84 393 116.538 M 451.643 99.028 C 450.071 99.499, 447.933 100.655, 446.893 101.597 L 445 103.310 445 119.048 L 445 134.786 446.582 135.393 C 449.196 136.396, 460.479 136.078, 463.840 134.906 C 470.827 132.470, 472.767 104.335, 466.288 99.420 C 464.308 97.918, 456.081 97.698, 451.643 99.028 M 570.250 120.662 C 568.759 121.264, 568.546 131.733, 569.979 134 C 571.628 136.609, 581.610 135.967, 587.500 132.874 L 592.500 130.248 592.802 125.124 L 593.105 120 582.302 120.079 C 576.361 120.122, 570.938 120.385, 570.250 120.662 M 193 177 L 191 179 191 195 C 191 203.800, 190.982 211.338, 190.960 211.750 C 190.939 212.162, 191.800 212.639, 192.874 212.808 C 195.293 213.190, 195.820 211.448, 195.778 203.210 C 195.739 195.471, 195.337 195.833, 204.168 195.651 C 210.256 195.525, 211.527 195.209, 211.809 193.750 L 212.147 192 204.204 192 L 196.262 192 195.703 188.555 C 195.395 186.660, 195.480 183.848, 195.891 182.305 L 196.638 179.500 204.819 179.210 L 213 178.919 213 176.960 L 213 175 204 175 L 195 175 193 177 M 331 192.429 C 331 212.167, 331.286 213, 338.071 213 C 342.495 213, 343.607 210.636, 339.750 209.433 C 336.211 208.328, 336.032 207.430, 336.015 190.750 L 336 175 333.500 175 L 331 175 331 192.429 M 363.701 175.632 C 362.314 177.019, 362.901 208.482, 364.351 210.466 C 366.999 214.086, 387.713 213.580, 385.469 209.950 C 385.146 209.427, 381.589 209, 377.563 209 C 367.934 209, 368.107 209.319, 367.777 190.943 L 367.500 175.525 365.951 175.228 C 365.099 175.065, 364.087 175.246, 363.701 175.632 M 97.892 183.500 C 92.851 188.879, 92.079 188.958, 86.119 184.698 C 78.978 179.594, 79.028 179.609, 79.925 182.740 C 81.946 189.785, 98.351 218.582, 101.218 220.116 C 102.898 221.016, 116.054 220.982, 134.122 220.033 C 135.451 219.963, 152.875 187.281, 153.562 183.568 L 154.291 179.636 149.190 183.937 L 144.089 188.238 140.198 185.157 C 138.058 183.462, 135.733 181.384, 135.031 180.538 C 133.025 178.120, 130.672 178.710, 126.946 182.566 C 125.051 184.527, 122.030 187.044, 120.233 188.158 L 116.966 190.184 110.926 184.592 C 103.638 177.845, 103.225 177.810, 97.892 183.500 M 576.024 186 L 569.548 186.500 568.265 189 C 567.342 190.800, 567.163 194.083, 567.626 200.720 C 568.139 208.067, 567.963 210.407, 566.760 212.243 C 565.473 214.207, 565.239 216.329, 565.872 220.301 C 566.678 225.360, 587.927 224.955, 589.548 219.850 C 592.070 211.903, 589.473 208.705, 580.062 208.173 C 575.351 207.907, 572.959 207.336, 572.596 206.391 C 571.672 203.982, 572.973 202.272, 575.381 202.732 C 583.105 204.209, 588.410 199.757, 589.361 191 L 589.959 185.500 586.229 185.500 C 584.178 185.500, 579.586 185.725, 576.024 186 M 239.223 187.557 C 233.506 191.561, 237.519 199.334, 245.897 200.486 C 248.711 200.873, 252.006 201.994, 253.220 202.977 L 255.428 204.765 254.278 207.289 C 252.904 210.306, 248.532 211.533, 244.552 210.020 C 241.094 208.705, 238.242 210.382, 240.110 212.633 C 242.833 215.914, 256.835 213.478, 258.379 209.455 C 260.649 203.539, 257.652 199.716, 249.342 197.927 C 236.134 195.084, 238.584 187.951, 252.250 189.463 L 258 190.099 258 188.050 L 258 186 249.723 186 C 243.849 186, 240.799 186.452, 239.223 187.557 M 273.020 187.284 C 268.275 189.685, 266.642 197.570, 269.075 206.330 C 270.685 212.130, 280.480 215.954, 286.066 212.965 C 289.796 210.968, 288.294 209.480, 282.923 209.852 C 276.540 210.294, 273.508 207.874, 272.565 201.584 C 271.314 193.242, 273.858 190.038, 281.750 190.015 L 287 190 287 188 L 287 186 281.250 186.015 C 278.087 186.023, 274.384 186.594, 273.020 187.284 M 299.667 186.667 C 297.544 188.790, 299.422 189.648, 306.033 189.577 C 313.737 189.493, 314.957 190.275, 314.985 195.317 L 315 198.135 312.750 197.317 C 301.097 193.084, 291.262 203.261, 299.515 211.014 L 302.029 213.376 308.265 212.319 C 311.694 211.738, 315.219 211.632, 316.097 212.084 C 318.943 213.550, 320 210.965, 319.994 202.550 C 319.987 192.281, 318.686 187.417, 315.734 186.626 C 312.689 185.810, 300.493 185.841, 299.667 186.667 M 398.500 186.945 C 390.008 190.421, 389.804 206.862, 398.190 211.974 C 403.001 214.907, 413.230 214.449, 414.460 211.245 C 415.274 209.122, 415.080 209.067, 410.004 209.997 C 403.502 211.189, 399.447 209.278, 398.096 204.386 C 396.777 199.609, 396.888 199.530, 402.782 201.041 C 411.107 203.174, 415.455 201.083, 415.455 194.944 C 415.455 187.643, 406.786 183.554, 398.500 186.945 M 426.667 186.667 C 424.391 188.942, 426.237 189.947, 431.750 189.435 C 439.062 188.756, 442.380 190.321, 442.804 194.648 L 443.108 197.751 439.053 196.669 C 429.765 194.189, 423.628 197.897, 424.434 205.500 C 425.148 212.233, 426.800 213.367, 434.500 212.411 C 437.800 212.001, 441.679 211.718, 443.121 211.782 L 445.742 211.899 446.371 207.310 C 447.763 197.153, 447.176 191.085, 444.545 188.455 L 442.091 186 434.712 186 C 430.654 186, 427.033 186.300, 426.667 186.667 M 468.500 187.100 C 466.850 187.610, 463.841 187.761, 461.813 187.436 L 458.126 186.845 458.313 199.673 L 458.500 212.500 460.750 212.820 L 463 213.139 463 202.615 L 463 192.091 466.750 191.414 C 471.685 190.523, 474 189.262, 474 187.465 C 474 185.823, 472.871 185.748, 468.500 187.100 M 493.500 187.115 C 491.850 187.634, 488.614 187.797, 486.310 187.477 L 482.119 186.895 481.810 199.198 C 481.497 211.639, 481.825 212.955, 485.250 212.985 L 487 213 487 202 L 487 191 489.360 191 C 490.659 191, 493.850 190.708, 496.453 190.351 L 501.185 189.703 500.842 200.853 C 500.500 211.987, 500.812 213.112, 504.014 212.282 C 505.739 211.836, 505.604 191.059, 503.855 187.750 C 502.829 185.810, 498.496 185.544, 493.500 187.115 M 518.721 186.755 L 516.941 187.158 517.221 199.829 L 517.500 212.500 519.500 212.500 L 521.500 212.500 521.512 199.662 C 521.526 186.137, 521.522 186.120, 518.721 186.755 M 544.500 187.074 C 541.750 187.556, 538.024 187.684, 536.219 187.358 L 532.938 186.766 533.219 199.633 C 533.603 217.206, 536.333 218.828, 536.784 201.750 L 537.068 191 539.284 190.991 C 540.503 190.987, 543.847 190.701, 546.716 190.356 L 551.932 189.729 552.216 201.115 C 552.449 210.442, 552.771 212.500, 554 212.500 C 555.420 212.500, 556.298 188.965, 554.929 187.596 C 553.846 186.512, 549.069 186.273, 544.500 187.074 M 572.567 189.926 C 570.423 192.295, 571.099 198.440, 573.609 199.403 C 578.925 201.443, 585 198.360, 585 193.622 C 585 188.691, 576.083 186.041, 572.567 189.926 M 399.679 191.038 C 397.693 192.600, 396.977 193.962, 397.195 195.767 L 397.500 198.301 403.496 198.561 C 409.778 198.833, 410.957 198.173, 410.985 194.372 C 411.018 189.690, 404.018 187.625, 399.679 191.038 M 302.750 200.055 C 297.781 203.020, 301.870 209.405, 308.575 209.151 C 314.538 208.926, 315.221 208.294, 314.818 203.382 L 314.500 199.500 309.500 199.256 C 306.750 199.121, 303.712 199.481, 302.750 200.055 M 429.750 200.056 C 427.737 201.256, 427.502 204.780, 429.282 207.062 C 433.782 212.832, 444.181 208.431, 442.829 201.329 C 442.421 199.185, 432.784 198.247, 429.750 200.056 M 569.388 213.591 C 568.007 219.092, 579.389 223.242, 584.416 219.070 C 589.334 214.988, 584.905 211, 575.454 211 L 570.038 211 569.388 213.591" stroke="none" fill="#212122" fill-rule="evenodd"/></svg>